HIERARCHY
ROOT Hips
{
	OFFSET 62.890800 8.863803 43.568401
	CHANNELS 6 Xposition Yposition Zposition Zrotation Xrotation Yrotation
	JOINT Chest
	{
		OFFSET -0.160400 1.630001 7.806301
		CHANNELS 6 Xposition Yposition Zposition Zrotation Xrotation Yrotation
		JOINT Chest2
		{
			OFFSET 0.000000 0.000000 3.197998
			CHANNELS 6 Xposition Yposition Zposition Zrotation Xrotation Yrotation
			JOINT Neck
			{
				OFFSET 0.000000 0.000001 7.440701
				CHANNELS 6 Xposition Yposition Zposition Zrotation Xrotation Yrotation
				JOINT Head
				{
					OFFSET 0.000000 0.000000 2.173901
					CHANNELS 6 Xposition Yposition Zposition Zrotation Xrotation Yrotation
					End Site
					{
						OFFSET 0.000000 0.000001 10.420303
					}
				}
			}
			JOINT LeftCollar
			{
				OFFSET 2.426399 -1.880099 4.759399
				CHANNELS 6 Xposition Yposition Zposition Zrotation Xrotation Yrotation
				JOINT LeftShoulder
				{
					OFFSET 4.420197 0.000000 0.000000
					CHANNELS 6 Xposition Yposition Zposition Zrotation Xrotation Yrotation
					JOINT LeftElbow
					{
						OFFSET 0.000000 -0.000001 -10.347099
						CHANNELS 6 Xposition Yposition Zposition Zrotation Xrotation Yrotation
						JOINT LeftWrist
						{
							OFFSET 0.000000 -0.000001 -12.496300
							CHANNELS 6 Xposition Yposition Zposition Zrotation Xrotation Yrotation
							End Site
							{
								OFFSET 0.000000 0.000000 -2.173901
							}
						}
					}
				}
			}
			JOINT RightCollar
			{
				OFFSET -2.781502 -1.903799 5.072601
				CHANNELS 6 Xposition Yposition Zposition Zrotation Xrotation Yrotation
				JOINT RightShoulder
				{
					OFFSET -4.012100 0.000000 0.000000
					CHANNELS 6 Xposition Yposition Zposition Zrotation Xrotation Yrotation
					JOINT RightElbow
					{
						OFFSET 0.000000 -0.000001 -10.346600
						CHANNELS 6 Xposition Yposition Zposition Zrotation Xrotation Yrotation
						JOINT RightWrist
						{
							OFFSET 0.000000 -0.000001 -12.562599
							CHANNELS 6 Xposition Yposition Zposition Zrotation Xrotation Yrotation
							End Site
							{
								OFFSET 0.000000 0.000000 -2.173901
							}
						}
					}
				}
			}
		}
	}
	JOINT LeftHip
	{
		OFFSET 2.047997 -0.047200 -2.693199
		CHANNELS 6 Xposition Yposition Zposition Zrotation Xrotation Yrotation
		JOINT LeftKnee
		{
			OFFSET 0.000000 -0.000001 -18.824400
			CHANNELS 6 Xposition Yposition Zposition Zrotation Xrotation Yrotation
			JOINT LeftAnkle
			{
				OFFSET 0.000000 -0.000002 -19.078199
				CHANNELS 6 Xposition Yposition Zposition Zrotation Xrotation Yrotation
				End Site
				{
					OFFSET 0.000000 -9.342100 0.000001
				}
			}
		}
	}
	JOINT RightHip
	{
		OFFSET -2.129898 -0.022300 -2.538300
		CHANNELS 6 Xposition Yposition Zposition Zrotation Xrotation Yrotation
		JOINT RightKnee
		{
			OFFSET 0.000000 -0.000001 -18.644600
			CHANNELS 6 Xposition Yposition Zposition Zrotation Xrotation Yrotation
			JOINT RightAnkle
			{
				OFFSET 0.000000 -0.000002 -18.801399
				CHANNELS 6 Xposition Yposition Zposition Zrotation Xrotation Yrotation
				End Site
				{
					OFFSET 0.000000 -8.914600 0.000001
				}
			}
		}
	}
}
MOTION
Frames: 6
Frame Time: 0.041667
22.740089 -30.822605 37.723240 0.927024 -17.657683 0.343254 -0.160406 1.630005 7.806297 -2.149116 22.907766 12.563826 0.000008 0.000005 3.197995 -12.857808 -3.622991 -2.348156 -0.000003 0.000002 7.440696 18.340014 6.120441 -15.429572 -0.000007 0.000000 2.173907 3.436475 2.535572 3.832252 2.426404 -1.880099 4.759395 -10.456290 2.440115 7.885660 4.420200 0.000002 -0.000009 -66.544074 -21.278975 -81.599341 -0.000003 0.000000 -10.347096 40.346938 -7.234971 2.544187 0.000007 -0.000004 -12.496305 81.252374 5.068047 7.430682 -2.781500 -1.903798 5.072605 3.513207 11.865556 0.119896 -4.012102 -0.000003 -0.000002 76.816761 -10.772524 122.233489 -0.000009 0.000002 -10.346601 -89.851282 -41.069805 -105.245313 -0.000002 -0.000001 -12.562593 635.279392 15.129163 -21.574515 2.047994 -0.047199 -2.693200 70.070501 -33.653513 24.929222 -0.000002 -0.000004 -18.824402 55.047517 130.469509 -117.743473 -0.000003 -0.000000 -19.078199 5.753374 7.939474 4.144356 -2.129901 -0.022299 -2.538293 -323.922842 31.345391 -1.234260 -0.000005 -0.000002 -18.644600 168.559124 142.444606 147.256570 -0.000005 -0.000001 -18.801399 -27.838828 -17.187908 -30.398542
22.749588 -30.829300 37.714134 0.929489 -17.757157 0.345695 -0.160400 1.630000 7.806309 -2.141526 22.946193 12.612970 0.000000 -0.000001 3.198003 -12.863911 -3.590443 -2.350244 -0.000005 0.000000 7.440701 18.331063 6.161696 -15.484228 -0.000006 -0.000000 2.173898 3.414902 2.518054 3.805878 2.426405 -1.880099 4.759390 -10.648794 2.512253 7.894952 4.420192 -0.000001 -0.000003 -66.411780 -21.247827 -81.733459 -0.000009 -0.000003 -10.347094 40.626023 -7.205109 2.589821 -0.000010 0.000003 -12.496302 81.113626 5.087064 7.320733 -2.781503 -1.903797 5.072605 3.545145 11.852700 0.165251 -4.012097 -0.000003 -0.000002 76.762249 -10.815512 122.163630 0.000000 0.000002 -10.346601 -89.989498 -41.303264 -105.278378 0.000006 0.000002 -12.562601 635.091316 15.118426 -21.662090 2.047995 -0.047202 -2.693194 70.025859 -33.626176 24.858421 0.000000 -0.000004 -18.824404 54.947253 130.465479 -117.670444 -0.000002 -0.000003 -19.078201 5.730432 7.891657 4.145064 -2.129896 -0.022302 -2.538296 -323.659087 31.493282 -1.406690 0.000001 0.000001 -18.644596 168.510753 142.578819 147.152013 -0.000002 -0.000001 -18.801399 -27.923726 -17.204152 -30.439544
22.756001 -30.834099 37.706833 0.935987 -17.847207 0.349431 -0.160397 1.630006 7.806309 -2.135784 22.964351 12.671767 0.000007 -0.000000 3.198000 -12.886397 -3.554265 -2.355541 -0.000000 0.000001 7.440701 18.354388 6.220448 -15.557337 0.000002 -0.000001 2.173907 3.394097 2.500428 3.770054 2.426401 -1.880099 4.759393 -10.801724 2.583306 7.786207 4.420195 0.000001 -0.000003 -66.251428 -21.400818 -81.777636 -0.000007 0.000000 -10.347093 40.822815 -7.192112 2.634399 0.000002 -0.000005 -12.496301 80.977384 5.101762 7.214635 -2.781499 -1.903800 5.072604 3.591514 11.900014 0.238976 -4.012102 0.000003 -0.000008 76.707703 -10.884054 122.123892 -0.000006 -0.000001 -10.346602 -90.094539 -41.451902 -105.266336 0.000002 -0.000002 -12.562596 634.919523 15.125392 -21.709130 2.047996 -0.047195 -2.693195 70.019514 -33.597202 24.817774 0.000005 -0.000010 -18.824398 54.746647 130.518003 -117.529333 -0.000002 -0.000002 -19.078203 5.790460 7.842821 4.146060 -2.129901 -0.022301 -2.538303 -323.357821 31.627276 -1.594613 0.000003 -0.000003 -18.644598 168.425170 142.704905 147.039302 0.000001 -0.000003 -18.801399 -28.001564 -17.215736 -30.434339
22.760189 -30.837601 37.700840 0.948022 -17.931714 0.355180 -0.160403 1.630000 7.806304 -2.133774 22.972824 12.727862 0.000008 -0.000002 3.198000 -12.922504 -3.521442 -2.363350 -0.000003 -0.000002 7.440697 18.402206 6.295920 -15.625846 -0.000005 0.000000 2.173906 3.369127 2.470696 3.771570 2.426410 -1.880100 4.759391 -10.904033 2.628827 7.688701 4.420191 -0.000005 -0.000003 -66.108855 -21.549559 -81.788845 -0.000002 -0.000012 -10.347094 40.983205 -7.185813 2.669574 0.000002 -0.000001 -12.496296 80.888264 5.135612 7.095747 -2.781502 -1.903801 5.072601 3.622212 11.960980 0.330342 -4.012101 0.000001 -0.000005 76.659974 -10.957170 122.091762 -0.000002 0.000000 -10.346607 -90.207203 -41.542430 -105.258440 -0.000002 -0.000005 -12.562601 634.783083 15.151921 -21.670780 2.047995 -0.047196 -2.693196 70.066423 -33.558492 24.809692 -0.000000 -0.000003 -18.824404 54.434101 130.628502 -117.326818 -0.000003 -0.000003 -19.078205 5.932585 7.785455 4.143042 -2.129900 -0.022300 -2.538300 -323.024289 31.751497 -1.800185 0.000004 -0.000000 -18.644600 168.308210 142.823886 146.920579 0.000001 -0.000002 -18.801395 -28.075969 -17.227370 -30.405513
22.762596 -30.839699 37.695740 0.951636 -18.006084 0.357634 -0.160405 1.629998 7.806304 -2.121691 22.965763 12.776160 0.000003 0.000000 3.198002 -12.969217 -3.492692 -2.373104 -0.000002 0.000002 7.440701 18.487072 6.389519 -15.689508 0.000002 -0.000000 2.173901 3.321418 2.425452 3.824231 2.426404 -1.880099 4.759396 -10.962565 2.661506 7.604803 4.420196 -0.000001 0.000002 -65.983131 -21.727855 -81.769017 -0.000001 -0.000003 -10.347088 41.086819 -7.193413 2.693731 -0.000001 -0.000004 -12.496298 80.823602 5.174680 7.003842 -2.781502 -1.903800 5.072610 3.657437 12.041314 0.394568 -4.012104 -0.000001 -0.000001 76.589261 -10.985574 122.096762 -0.000004 0.000001 -10.346603 -90.417184 -41.724441 -105.318423 0.000001 -0.000000 -12.562601 634.515886 15.178507 -21.581151 2.047997 -0.047203 -2.693197 70.116878 -33.521257 24.804503 -0.000001 -0.000002 -18.824396 54.133231 130.743809 -117.139233 -0.000000 0.000001 -19.078203 6.082448 7.704932 4.137394 -2.129897 -0.022298 -2.538301 -322.722668 31.853069 -1.982653 0.000001 -0.000000 -18.644604 168.177890 142.903567 146.827265 -0.000001 -0.000002 -18.801395 -28.118547 -17.234577 -30.350338
22.764183 -30.840904 37.691238 0.927113 -18.058329 0.550982 -0.160403 1.630002 7.806296 -1.996223 22.938313 12.601703 0.000008 -0.000000 3.197992 -13.027846 -3.467928 -2.384971 -0.000007 0.000002 7.440703 18.598516 6.497470 -15.765489 -0.000006 -0.000004 2.173904 3.270580 2.381125 3.880482 2.426400 -1.880098 4.759399 -11.016585 2.692792 7.605106 4.420194 -0.000003 -0.000002 -65.874716 -21.833313 -81.783230 0.000005 -0.000002 -10.347095 41.144482 -7.200766 2.698125 0.000000 -0.000002 -12.496303 80.824757 5.224262 6.892142 -2.781505 -1.903795 5.072612 3.706035 12.147658 0.421064 -4.012103 -0.000003 -0.000009 76.524920 -10.995290 122.141459 -0.000003 0.000005 -10.346602 -90.683896 -41.978684 -105.447432 0.000000 -0.000004 -12.562596 634.137712 15.206511 -21.392723 2.047994 -0.047194 -2.693198 70.138209 -33.679793 24.728324 0.000000 -0.000001 -18.824404 53.894666 130.822739 -116.993791 0.000000 -0.000000 -19.078201 6.202719 7.602225 4.121672 -2.129899 -0.022299 -2.538300 -322.353974 31.802109 -2.313115 0.000002 -0.000001 -18.644600 168.032189 142.941502 146.766845 -0.000001 -0.000003 -18.801397 -28.122797 -17.234823 -30.268629
